<?xml version="1.0" encoding="iso-8859-1"?>
<!-- Generator: Adobe Illustrator 16.0.4, SVG Export Plug-In . SVG Version: 6.00 Build 0)  -->
<!DOCTYPE svg PUBLIC "-//W3C//DTD SVG 1.1//EN" "http://www.w3.org/Graphics/SVG/1.1/DTD/svg11.dtd">
<svg version="1.1" id="Capa_1" xmlns="http://www.w3.org/2000/svg" xmlns:xlink="http://www.w3.org/1999/xlink" x="0px" y="0px"
	 width="17.023px" height="21.417px" viewBox="0 0 17.023 21.417" style="enable-background:new 0 0 17.023 21.417;"
	 xml:space="preserve">
<g>
	<path style="fill:#231F20;" d="M12.641,0h-0.566C10.07,0.788,8.496,2.016,8.399,4.743C11.137,5.083,12.619,2.9,12.641,0z"/>
	<path style="fill:#231F20;" d="M4.865,21.417h1.132c1.557-1.175,4.31-0.934,5.937,0h0.849c1.629-0.714,4.241-3.938,4.241-5.749
		c-3.355-0.684-3.744-7.138-0.566-8.338l0,0c-0.894-1.323-2.116-2.173-4.031-2.174l0,0c-0.16,0-0.324,0.006-0.493,0.019l0,0
		c-1.175,0.083-2.348,1.006-3.393,1.006l0,0c-1.171,0-2.159-0.964-3.252-1.006l0,0C-3.18,4.842-0.074,18.521,4.865,21.417z"/>
</g>
<g>
</g>
<g>
</g>
<g>
</g>
<g>
</g>
<g>
</g>
<g>
</g>
<g>
</g>
<g>
</g>
<g>
</g>
<g>
</g>
<g>
</g>
<g>
</g>
<g>
</g>
<g>
</g>
<g>
</g>
</svg>
